<?xml version="1.0" standalone="no"?>
<!DOCTYPE svg PUBLIC "-//W3C//DTD SVG 20010904//EN"
 "http://www.w3.org/TR/2001/REC-SVG-20010904/DTD/svg10.dtd">
<svg version="1.0" xmlns="http://www.w3.org/2000/svg"
 width="1300.000000pt" height="1051.000000pt" viewBox="0 0 1300.000000 1051.000000"
 preserveAspectRatio="xMidYMid meet">

<g transform="translate(0.000000,1051.000000) scale(0.100000,-0.100000)"
fill="#000000" stroke="none">
<path d="M4935 7696 c-1153 -384 -1548 -520 -1570 -539 l-30 -25 -3 -1707 c-2
-1540 0 -1709 14 -1737 12 -24 40 -42 137 -88 67 -31 167 -79 222 -105 55 -26
133 -63 173 -81 41 -19 115 -54 165 -78 51 -24 162 -76 247 -116 198 -92 272
-127 448 -211 79 -38 145 -69 147 -69 2 0 106 -49 232 -109 125 -59 253 -120
283 -134 85 -39 363 -169 480 -224 574 -271 689 -323 713 -323 16 0 641 307
1534 753 1269 633 1509 757 1524 782 18 28 19 58 19 395 l0 365 -110 110
c-105 104 -110 108 -110 80 0 -17 0 -206 0 -421 0 -305 -2 -394 -12 -402 -19
-15 -2716 -1362 -2728 -1362 -6 0 -10 241 -10 687 l0 686 -22 26 -23 26 23
-19 22 -19 0 144 c0 79 2 499 3 934 l2 789 25 13 c32 17 157 73 238 107 34 15
92 40 128 56 35 17 67 30 69 30 2 0 28 11 57 24 90 40 208 92 333 146 66 28
138 60 160 70 22 10 144 63 270 118 127 55 273 119 325 142 134 59 194 86 637
279 215 94 412 180 437 192 25 11 50 18 56 14 7 -4 10 -353 10 -1113 l0 -1107
110 -110 110 -110 0 1331 c0 732 -3 1334 -7 1338 -4 4 -59 -44 -123 -106
l-115 -113 115 117 c114 117 114 118 95 137 -12 12 -531 190 -1335 458 -723
241 -1319 438 -1325 439 -5 0 -17 4 -25 7 -51 23 -438 147 -455 146 -11 0
-713 -231 -1560 -513z m1424 236 l140 47 144 -48 145 -49 38 37 39 36 -34 -37
c-26 -28 -31 -39 -20 -43 8 -3 174 -58 369 -123 l355 -119 -34 -17 c-19 -10
-57 -26 -85 -36 -28 -10 -118 -46 -201 -80 -82 -34 -312 -127 -510 -207 -198
-80 -409 -165 -470 -190 -60 -25 -166 -67 -235 -95 -110 -44 -133 -57 -190
-111 -64 -61 -64 -61 -15 -8 28 30 43 51 35 48 -18 -6 -458 -184 -709 -286
l-174 -71 -161 66 c-330 136 -453 187 -541 223 -49 21 -177 73 -282 116 -108
45 -187 82 -180 86 6 4 556 188 1220 409 l1209 403 -89 91 -88 91 92 -90 92
-89 140 46z m581 95 c0 -2 -15 -16 -32 -33 l-33 -29 29 33 c28 30 36 37 36 29z
m1617 -734 c375 -125 680 -229 678 -231 -3 -4 -156 -72 -295 -132 -36 -15
-144 -63 -240 -105 -96 -42 -222 -97 -280 -122 -58 -24 -123 -53 -145 -63 -22
-10 -130 -58 -240 -105 -320 -139 -337 -147 -390 -170 -99 -45 -716 -315 -910
-399 -72 -31 -138 -56 -148 -56 -9 0 -31 7 -49 15 -18 8 -166 69 -328 135
-162 66 -342 140 -400 165 -58 24 -168 69 -245 101 -313 128 -322 132 -294
143 13 6 58 24 99 41 41 17 88 43 105 58 23 21 25 22 10 4 l-19 -23 49 19 c28
11 140 57 250 102 207 84 880 356 1065 431 58 23 107 44 109 46 3 2 -31 41
-75 86 l-79 82 85 -81 85 -82 245 100 c135 54 252 102 260 105 146 59 333 134
360 147 19 8 40 15 45 16 6 0 317 -102 692 -227z m-4662 -524 c138 -56 381
-156 540 -221 160 -66 351 -144 425 -174 74 -30 161 -67 193 -80 32 -14 61
-23 64 -20 4 3 14 -1 22 -9 15 -12 185 -84 616 -260 72 -29 240 -99 375 -155
135 -55 269 -110 298 -121 l52 -20 0 -826 c0 -961 -6 -902 89 -811 l56 53 -52
-55 -53 -56 23 -24 22 -24 -26 22 c-25 22 -26 22 -42 4 -16 -17 -17 -83 -17
-785 l0 -767 -32 14 c-18 7 -78 35 -133 61 -55 27 -275 130 -490 231 -374 176
-390 182 -410 166 -19 -16 -19 -16 -6 1 8 9 12 19 10 22 -5 4 -83 41 -554 262
-82 39 -195 92 -250 118 -164 78 -598 282 -775 365 -91 42 -193 91 -227 109
l-63 31 0 397 0 398 -102 -100 -103 -100 102 105 103 105 2 1140 c2 753 6
1139 13 1138 6 -1 19 -5 30 -9 11 -3 -38 54 -110 127 l-130 134 145 -142 145
-141 250 -103z m1845 58 c0 -2 -15 -16 -32 -33 l-33 -29 29 33 c28 30 36 37
36 29z m-80 -80 c0 -2 -15 -16 -32 -33 l-33 -29 29 33 c28 30 36 37 36 29z
m-80 -80 c0 -2 -15 -16 -32 -33 l-33 -29 29 33 c28 30 36 37 36 29z m-480
-297 c0 -5 -2 -10 -4 -10 -3 0 -8 5 -11 10 -3 6 -1 10 4 10 6 0 11 -4 11 -10z
m-32 -26 c-13 -13 -20 -14 -34 -5 -17 11 -17 11 3 6 12 -3 24 -1 28 5 3 5 9
10 13 10 3 0 -1 -7 -10 -16z m-33 -24 c3 -6 -1 -7 -9 -4 -18 7 -21 14 -7 14 6
0 13 -4 16 -10z m160 -20 c-3 -5 -11 -10 -16 -10 -6 0 -7 5 -4 10 3 6 11 10
16 10 6 0 7 -4 4 -10z m-30 -28 c-3 -3 -11 0 -18 7 -9 10 -8 11 6 5 10 -3 15
-9 12 -12z m1525 -2085 c0 -2 -15 -16 -32 -33 l-33 -29 29 33 c28 30 36 37 36
29z m-74 -269 l29 -33 -32 29 c-18 17 -33 31 -33 33 0 8 8 1 36 -29z"/>
<path d="M4755 5479 c-93 -49 -223 -118 -288 -151 -149 -78 -187 -113 -187
-172 0 -63 41 -106 100 -106 43 0 49 3 367 172 l92 49 3 -696 3 -697 33 -29
c46 -41 108 -41 154 0 l33 29 5 604 5 603 41 -60 c22 -33 67 -98 99 -145 32
-47 91 -132 129 -189 98 -144 124 -171 169 -171 72 0 117 44 117 113 0 39 -48
113 -383 597 -32 47 -93 135 -134 196 -78 115 -111 144 -160 144 -16 0 -102
-40 -198 -91z"/>
<path d="M6480 4014 c0 -22 2 -25 15 -14 12 10 13 16 4 26 -16 20 -19 18 -19
-12z"/>
</g>
</svg>
